<svg xmlns="http://www.w3.org/2000/svg" viewBox="0 -256 1792 1792" id="svg3037" version="1.1" width="100%" height="100%"><g transform="matrix(1 0 0 -1 121.492 1277.83)" id="g3039"><path d="M1536 1280V832q0-26-19-45t-45-19h-448q-42 0-59 40-17 39 14 69l138 138q-148 137-349 137-104 0-198.5-40.5T406 1002q-69-69-109.5-163.5T256 640q0-104 40.5-198.5T406 278q69-69 163.5-109.5T768 128q169 0 304 99.5T1257 489q7 23 30 23h199q16 0 25-12 10-13 7-27-39-175-147.5-312t-266-213Q947-128 768-128q-156 0-298 61T225 97Q122 200 61 342T0 640q0 156 61 298t164 245q103 103 245 164t298 61q147 0 284.5-55.5T1297 1196l130 129q29 31 70 14 39-17 39-59z" id="path3041" fill="#fff"/></g></svg>