<?xml version="1.0" encoding="iso-8859-1"?>
<svg version="1.1" xmlns="http://www.w3.org/2000/svg" xmlns:xlink="http://www.w3.org/1999/xlink" x="0px" y="0px"
	 viewBox="0 0 512 512" style="enable-background:new 0 0 512 512;" xml:space="preserve">
<g>
	<g>
		<path d="M0,189.217v267.13h512v-267.13H0z M345.043,306.087h33.391v33.391h-33.391V306.087z M300.522,239.304h33.391v33.391
			h-33.391V239.304z M289.391,306.087h33.391v33.391h-33.391V306.087z M244.87,239.304h33.391v33.391H244.87V239.304z
			 M233.739,306.087h33.391v33.391h-33.391V306.087z M189.217,239.304h33.391v33.391h-33.391V239.304z M66.783,306.087h33.391
			v33.391H66.783V306.087z M111.304,406.261H77.913V372.87h33.391V406.261z M111.304,272.696H77.913v-33.391h33.391V272.696z
			 M122.435,306.087h33.391v33.391h-33.391V306.087z M166.957,406.261h-33.391V372.87h33.391V406.261z M166.957,272.696h-33.391
			v-33.391h33.391V272.696z M178.087,306.087h33.391v33.391h-33.391V306.087z M389.565,406.261H189.217V372.87h200.348V406.261z
			 M389.565,272.696h-33.391v-33.391h33.391V272.696z M400.696,306.087h33.391v33.391h-33.391V306.087z M445.217,406.261h-33.391
			V372.87h33.391V406.261z M445.217,272.696h-33.391v-33.391h33.391V272.696z"/>
	</g>
</g>
<g>
	<g>
		<path d="M283.826,55.652c0,29.547-8.93,42.384-19.271,57.248c-7.945,11.421-16.594,23.875-21.428,42.926h35.041
			c3.548-9.11,8.486-16.218,13.799-23.857c11.835-17.014,25.251-36.299,25.251-76.317H283.826z"/>
	</g>
</g>
<g>
</g>
<g>
</g>
<g>
</g>
<g>
</g>
<g>
</g>
<g>
</g>
<g>
</g>
<g>
</g>
<g>
</g>
<g>
</g>
<g>
</g>
<g>
</g>
<g>
</g>
<g>
</g>
<g>
</g>
</svg>
